<svg preserveAspectRatio="xMidYMid meet" viewBox="0 0 378 38" fill="none" xmlns="http://www.w3.org/2000/svg">
<path d="M0.722803 19.5195C0.722803 16.0529 1.43947 12.9695 2.8728 10.2695C4.33947 7.53621 6.40614 5.41954 9.0728 3.91954C11.7395 2.38621 14.8061 1.61954 18.2728 1.61954C22.6728 1.61954 26.3728 2.80288 29.3728 5.16954C32.3728 7.50287 34.3061 10.6862 35.1728 14.7195H24.6228C23.9895 13.3862 23.1061 12.3695 21.9728 11.6695C20.8728 10.9695 19.5895 10.6195 18.1228 10.6195C15.8561 10.6195 14.0395 11.4362 12.6728 13.0695C11.3395 14.6695 10.6728 16.8195 10.6728 19.5195C10.6728 22.2529 11.3395 24.4362 12.6728 26.0695C14.0395 27.6695 15.8561 28.4695 18.1228 28.4695C19.5895 28.4695 20.8728 28.1195 21.9728 27.4195C23.1061 26.7195 23.9895 25.7029 24.6228 24.3695H35.1728C34.3061 28.4029 32.3728 31.6029 29.3728 33.9695C26.3728 36.3029 22.6728 37.4695 18.2728 37.4695C14.8061 37.4695 11.7395 36.7195 9.0728 35.2195C6.40614 33.6862 4.33947 31.5695 2.8728 28.8695C1.43947 26.1362 0.722803 23.0195 0.722803 19.5195ZM60.2634 8.91954C63.4634 8.91954 65.9968 10.0029 67.8634 12.1695C69.7634 14.3029 70.7134 17.2029 70.7134 20.8695V37.2195H60.9134V22.1695C60.9134 20.5695 60.4968 19.3195 59.6634 18.4195C58.8301 17.4862 57.7134 17.0195 56.3134 17.0195C54.8468 17.0195 53.6968 17.4862 52.8634 18.4195C52.0301 19.3195 51.6134 20.5695 51.6134 22.1695V37.2195H41.8134V0.219543H51.6134V13.1695C52.4801 11.9029 53.6468 10.8862 55.1134 10.1195C56.6134 9.31954 58.3301 8.91954 60.2634 8.91954ZM91.1408 37.5695C88.3408 37.5695 85.8241 36.9862 83.5908 35.8195C81.3908 34.6529 79.6574 32.9862 78.3908 30.8195C77.1241 28.6529 76.4908 26.1029 76.4908 23.1695C76.4908 20.2695 77.1241 17.7362 78.3908 15.5695C79.6908 13.4029 81.4408 11.7362 83.6408 10.5695C85.8741 9.40288 88.3908 8.81954 91.1908 8.81954C93.9908 8.81954 96.4908 9.40288 98.6908 10.5695C100.924 11.7362 102.674 13.4029 103.941 15.5695C105.241 17.7362 105.891 20.2695 105.891 23.1695C105.891 26.0695 105.241 28.6195 103.941 30.8195C102.674 32.9862 100.924 34.6529 98.6908 35.8195C96.4574 36.9862 93.9408 37.5695 91.1408 37.5695ZM91.1408 29.0695C92.5074 29.0695 93.6408 28.5695 94.5408 27.5695C95.4741 26.5362 95.9408 25.0695 95.9408 23.1695C95.9408 21.2695 95.4741 19.8195 94.5408 18.8195C93.6408 17.8195 92.5241 17.3195 91.1908 17.3195C89.8574 17.3195 88.7408 17.8195 87.8408 18.8195C86.9408 19.8195 86.4908 21.2695 86.4908 23.1695C86.4908 25.1029 86.9241 26.5695 87.7908 27.5695C88.6574 28.5695 89.7741 29.0695 91.1408 29.0695ZM110.278 23.1695C110.278 20.2695 110.878 17.7362 112.078 15.5695C113.278 13.4029 114.945 11.7362 117.078 10.5695C119.245 9.40288 121.711 8.81954 124.478 8.81954C128.045 8.81954 131.045 9.80288 133.478 11.7695C135.911 13.7029 137.478 16.4195 138.178 19.9195H127.778C127.178 18.0862 126.011 17.1695 124.278 17.1695C123.045 17.1695 122.061 17.6862 121.328 18.7195C120.628 19.7195 120.278 21.2029 120.278 23.1695C120.278 25.1362 120.628 26.6362 121.328 27.6695C122.061 28.7029 123.045 29.2195 124.278 29.2195C126.045 29.2195 127.211 28.3029 127.778 26.4695H138.178C137.478 29.9362 135.911 32.6529 133.478 34.6195C131.045 36.5862 128.045 37.5695 124.478 37.5695C121.711 37.5695 119.245 36.9862 117.078 35.8195C114.945 34.6529 113.278 32.9862 112.078 30.8195C110.878 28.6529 110.278 26.1029 110.278 23.1695ZM157.299 37.5695C154.499 37.5695 151.982 36.9862 149.749 35.8195C147.549 34.6529 145.816 32.9862 144.549 30.8195C143.282 28.6529 142.649 26.1029 142.649 23.1695C142.649 20.2695 143.282 17.7362 144.549 15.5695C145.849 13.4029 147.599 11.7362 149.799 10.5695C152.032 9.40288 154.549 8.81954 157.349 8.81954C160.149 8.81954 162.649 9.40288 164.849 10.5695C167.082 11.7362 168.832 13.4029 170.099 15.5695C171.399 17.7362 172.049 20.2695 172.049 23.1695C172.049 26.0695 171.399 28.6195 170.099 30.8195C168.832 32.9862 167.082 34.6529 164.849 35.8195C162.616 36.9862 160.099 37.5695 157.299 37.5695ZM157.299 29.0695C158.666 29.0695 159.799 28.5695 160.699 27.5695C161.632 26.5362 162.099 25.0695 162.099 23.1695C162.099 21.2695 161.632 19.8195 160.699 18.8195C159.799 17.8195 158.682 17.3195 157.349 17.3195C156.016 17.3195 154.899 17.8195 153.999 18.8195C153.099 19.8195 152.649 21.2695 152.649 23.1695C152.649 25.1029 153.082 26.5695 153.949 27.5695C154.816 28.5695 155.932 29.0695 157.299 29.0695ZM187.836 0.219543V37.2195H178.036V0.219543H187.836ZM193.817 23.1695C193.817 20.2695 194.334 17.7362 195.367 15.5695C196.434 13.4029 197.867 11.7362 199.667 10.5695C201.5 9.40288 203.534 8.81954 205.767 8.81954C207.7 8.81954 209.367 9.20288 210.767 9.96954C212.167 10.7362 213.25 11.7695 214.017 13.0695V9.16954H223.817V37.2195H214.017V33.3195C213.25 34.6195 212.15 35.6529 210.717 36.4195C209.317 37.1862 207.667 37.5695 205.767 37.5695C203.534 37.5695 201.5 36.9862 199.667 35.8195C197.867 34.6529 196.434 32.9862 195.367 30.8195C194.334 28.6195 193.817 26.0695 193.817 23.1695ZM214.017 23.1695C214.017 21.3695 213.517 19.9529 212.517 18.9195C211.55 17.8862 210.35 17.3695 208.917 17.3695C207.45 17.3695 206.234 17.8862 205.267 18.9195C204.3 19.9195 203.817 21.3362 203.817 23.1695C203.817 24.9695 204.3 26.4029 205.267 27.4695C206.234 28.5029 207.45 29.0195 208.917 29.0195C210.35 29.0195 211.55 28.5029 212.517 27.4695C213.517 26.4362 214.017 25.0029 214.017 23.1695ZM247.951 28.8695V37.2195H243.701C236.535 37.2195 232.951 33.6695 232.951 26.5695V17.3195H229.501V9.16954H232.951V2.36954H242.801V9.16954H247.901V17.3195H242.801V26.7195C242.801 27.4862 242.968 28.0362 243.301 28.3695C243.668 28.7029 244.268 28.8695 245.101 28.8695H247.951ZM281.246 22.8695C281.246 23.6362 281.196 24.4029 281.096 25.1695H262.546C262.646 26.7029 263.063 27.8529 263.796 28.6195C264.563 29.3529 265.53 29.7195 266.696 29.7195C268.33 29.7195 269.496 28.9862 270.196 27.5195H280.646C280.213 29.4529 279.363 31.1862 278.096 32.7195C276.863 34.2195 275.296 35.4029 273.396 36.2695C271.496 37.1362 269.396 37.5695 267.096 37.5695C264.33 37.5695 261.863 36.9862 259.696 35.8195C257.563 34.6529 255.88 32.9862 254.646 30.8195C253.446 28.6529 252.846 26.1029 252.846 23.1695C252.846 20.2362 253.446 17.7029 254.646 15.5695C255.846 13.4029 257.513 11.7362 259.646 10.5695C261.813 9.40288 264.296 8.81954 267.096 8.81954C269.863 8.81954 272.313 9.38621 274.446 10.5195C276.58 11.6529 278.246 13.2862 279.446 15.4195C280.646 17.5195 281.246 20.0029 281.246 22.8695ZM271.246 20.4195C271.246 19.2195 270.846 18.2862 270.046 17.6195C269.246 16.9195 268.246 16.5695 267.046 16.5695C265.846 16.5695 264.863 16.9029 264.096 17.5695C263.33 18.2029 262.83 19.1529 262.596 20.4195H271.246ZM294.907 31.6695H306.407V37.2195H287.907V2.31954H294.907V31.6695ZM311.056 23.2695C311.056 20.4695 311.606 17.9862 312.706 15.8195C313.839 13.6529 315.356 11.9862 317.256 10.8195C319.189 9.65288 321.339 9.06954 323.706 9.06954C325.773 9.06954 327.573 9.48621 329.106 10.3195C330.673 11.1529 331.923 12.2029 332.856 13.4695V9.51954H339.906V37.2195H332.856V33.1695C331.956 34.4695 330.706 35.5529 329.106 36.4195C327.539 37.2529 325.723 37.6695 323.656 37.6695C321.323 37.6695 319.189 37.0695 317.256 35.8695C315.356 34.6695 313.839 32.9862 312.706 30.8195C311.606 28.6195 311.056 26.1029 311.056 23.2695ZM332.856 23.3695C332.856 21.6695 332.523 20.2195 331.856 19.0195C331.189 17.7862 330.289 16.8529 329.156 16.2195C328.023 15.5529 326.806 15.2195 325.506 15.2195C324.206 15.2195 323.006 15.5362 321.906 16.1695C320.806 16.8029 319.906 17.7362 319.206 18.9695C318.539 20.1695 318.206 21.6029 318.206 23.2695C318.206 24.9362 318.539 26.4029 319.206 27.6695C319.906 28.9029 320.806 29.8529 321.906 30.5195C323.039 31.1862 324.239 31.5195 325.506 31.5195C326.806 31.5195 328.023 31.2029 329.156 30.5695C330.289 29.9029 331.189 28.9695 331.856 27.7695C332.523 26.5362 332.856 25.0695 332.856 23.3695ZM355.743 13.5695C356.643 12.2362 357.876 11.1529 359.443 10.3195C361.043 9.48621 362.859 9.06954 364.893 9.06954C367.259 9.06954 369.393 9.65288 371.293 10.8195C373.226 11.9862 374.743 13.6529 375.843 15.8195C376.976 17.9529 377.543 20.4362 377.543 23.2695C377.543 26.1029 376.976 28.6195 375.843 30.8195C374.743 32.9862 373.226 34.6695 371.293 35.8695C369.393 37.0695 367.259 37.6695 364.893 37.6695C362.826 37.6695 361.009 37.2695 359.443 36.4695C357.909 35.6362 356.676 34.5695 355.743 33.2695V37.2195H348.743V0.219543H355.743V13.5695ZM370.393 23.2695C370.393 21.6029 370.043 20.1695 369.343 18.9695C368.676 17.7362 367.776 16.8029 366.643 16.1695C365.543 15.5362 364.343 15.2195 363.043 15.2195C361.776 15.2195 360.576 15.5529 359.443 16.2195C358.343 16.8529 357.443 17.7862 356.743 19.0195C356.076 20.2529 355.743 21.7029 355.743 23.3695C355.743 25.0362 356.076 26.4862 356.743 27.7195C357.443 28.9529 358.343 29.9029 359.443 30.5695C360.576 31.2029 361.776 31.5195 363.043 31.5195C364.343 31.5195 365.543 31.1862 366.643 30.5195C367.776 29.8529 368.676 28.9029 369.343 27.6695C370.043 26.4362 370.393 24.9695 370.393 23.2695Z" fill="#EBEBEF"/>
</svg>
